<svg xmlns="http://www.w3.org/2000/svg" xmlns:xlink="http://www.w3.org/1999/xlink" version="1.1" width="256" height="256" viewBox="0 0 256 256" xml:space="preserve">

<defs>
</defs>
<g style="stroke: none; stroke-width: 0; stroke-dasharray: none; stroke-linecap: butt; stroke-linejoin: miter; stroke-miterlimit: 10; fill: none; fill-rule: nonzero; opacity: 1;" transform="translate(1.4065934065934016 1.4065934065934016) scale(2.81 2.81)" >
	<circle cx="45" cy="45" r="45" style="stroke: none; stroke-width: 1; stroke-dasharray: none; stroke-linecap: butt; stroke-linejoin: miter; stroke-miterlimit: 10; fill: rgb(32,196,203); fill-rule: nonzero; opacity: 1;" transform="  matrix(1 0 0 1 0 0) "/>
	<path d="M 69.171 42.057 h -3.633 c -0.581 -2.284 -1.486 -4.437 -2.661 -6.412 l 2.572 -2.572 c 0.455 -0.455 0.455 -1.192 0 -1.646 l -6.876 -6.876 c -0.455 -0.455 -1.192 -0.455 -1.646 0 l -2.572 2.572 c -1.975 -1.175 -4.128 -2.08 -6.412 -2.661 v -3.633 c 0 -0.643 -0.521 -1.164 -1.164 -1.164 h -9.724 c -0.643 0 -1.164 0.521 -1.164 1.164 v 3.633 c -2.284 0.581 -4.437 1.487 -6.412 2.661 l -2.572 -2.572 c -0.455 -0.455 -1.192 -0.455 -1.646 0 l -6.876 6.876 c -0.455 0.455 -0.455 1.192 0 1.646 l 2.572 2.572 c -1.175 1.975 -2.08 4.128 -2.661 6.412 h -3.633 c -0.643 0 -1.164 0.521 -1.164 1.164 v 9.724 c 0 0.643 0.521 1.164 1.164 1.164 h 3.633 c 0.581 2.284 1.487 4.437 2.661 6.412 l -2.572 2.572 c -0.455 0.455 -0.455 1.192 0 1.646 l 6.876 6.876 c 0.455 0.455 1.192 0.455 1.646 0 l 2.572 -2.572 c 1.975 1.175 4.128 2.08 6.412 2.661 v 3.633 c 0 0.643 0.521 1.164 1.164 1.164 h 9.724 c 0.643 0 1.164 -0.521 1.164 -1.164 v -3.633 c 2.284 -0.581 4.437 -1.486 6.412 -2.661 l 2.572 2.572 c 0.455 0.455 1.192 0.455 1.646 0 l 6.876 -6.876 c 0.455 -0.455 0.455 -1.192 0 -1.646 l -2.572 -2.572 c 1.175 -1.975 2.08 -4.128 2.661 -6.412 h 3.633 c 0.643 0 1.164 -0.521 1.164 -1.164 v -9.724 C 70.335 42.578 69.814 42.057 69.171 42.057 z M 41.917 63.081 c -8.284 0 -14.999 -6.715 -14.999 -14.999 c 0 -8.284 6.715 -14.999 14.999 -14.999 s 14.999 6.715 14.999 14.999 C 56.916 56.366 50.201 63.081 41.917 63.081 z" style="stroke: none; stroke-width: 1; stroke-dasharray: none; stroke-linecap: butt; stroke-linejoin: miter; stroke-miterlimit: 10; fill: rgb(27,167,173); fill-rule: nonzero; opacity: 1;" transform=" matrix(1 0 0 1 0 0) " stroke-linecap="round" />
	<path d="M 72.336 38.892 h -3.633 c -0.581 -2.284 -1.486 -4.437 -2.661 -6.412 l 2.572 -2.572 c 0.455 -0.455 0.455 -1.192 0 -1.646 l -6.876 -6.876 c -0.455 -0.455 -1.192 -0.455 -1.646 0 l -2.572 2.572 c -1.975 -1.175 -4.128 -2.08 -6.412 -2.661 v -3.633 c 0 -0.643 -0.521 -1.164 -1.164 -1.164 h -9.724 c -0.643 0 -1.164 0.521 -1.164 1.164 v 3.633 c -2.284 0.581 -4.437 1.487 -6.412 2.661 l -2.572 -2.572 c -0.455 -0.455 -1.192 -0.455 -1.646 0 l -6.876 6.876 c -0.455 0.455 -0.455 1.192 0 1.646 l 2.572 2.572 c -1.175 1.975 -2.08 4.128 -2.661 6.412 h -3.633 c -0.643 0 -1.164 0.521 -1.164 1.164 v 9.724 c 0 0.643 0.521 1.164 1.164 1.164 h 3.633 c 0.581 2.284 1.487 4.437 2.661 6.412 l -2.572 2.572 c -0.455 0.455 -0.455 1.192 0 1.646 l 6.876 6.876 c 0.455 0.455 1.192 0.455 1.646 0 l 2.572 -2.572 c 1.975 1.175 4.128 2.08 6.412 2.661 v 3.633 c 0 0.643 0.521 1.164 1.164 1.164 h 9.724 c 0.643 0 1.164 -0.521 1.164 -1.164 v -3.633 c 2.284 -0.581 4.437 -1.486 6.412 -2.661 l 2.572 2.572 c 0.455 0.455 1.192 0.455 1.646 0 l 6.876 -6.876 c 0.455 -0.455 0.455 -1.192 0 -1.646 l -2.572 -2.572 c 1.175 -1.975 2.08 -4.128 2.661 -6.412 h 3.633 c 0.643 0 1.164 -0.521 1.164 -1.164 v -9.724 C 73.5 39.413 72.979 38.892 72.336 38.892 z M 45.083 59.916 c -8.284 0 -14.999 -6.715 -14.999 -14.999 c 0 -8.284 6.715 -14.999 14.999 -14.999 s 14.999 6.715 14.999 14.999 C 60.081 53.201 53.366 59.916 45.083 59.916 z" style="stroke: none; stroke-width: 1; stroke-dasharray: none; stroke-linecap: butt; stroke-linejoin: miter; stroke-miterlimit: 10; fill: rgb(255,255,255); fill-rule: nonzero; opacity: 1;" transform=" matrix(1 0 0 1 0 0) " stroke-linecap="round" />
</g>
</svg>