<?xml version="1.0" encoding="iso-8859-1"?>
<!-- Generator: Adobe Illustrator 23.0.0, SVG Export Plug-In . SVG Version: 6.00 Build 0)  -->
<svg xmlns="http://www.w3.org/2000/svg" xmlns:xlink="http://www.w3.org/1999/xlink" viewBox="0 0 80 80" width="480px" height="480px">
<title>Branding_3</title>
<g>
	<path style="fill:#FFFFFF;" d="M74.5,11.5H42v57h32.5c1.105,0,2-0.895,2-2v-53C76.5,12.395,75.605,11.5,74.5,11.5z"/>
</g>
<g>
	<polygon style="fill:#B7DBBA;" points="46.5,76 3.5,68 3.5,12 46.5,4  "/>
</g>
<g>
	<path style="fill:#FFFFFF;" d="M30.26,54l-4.82-9.12c-0.272-0.599-0.464-1.231-0.57-1.88h-0.08c-0.163,0.682-0.377,1.35-0.64,2   l-4.85,9h-7.51l8.92-14l-8.16-14h7.67l4,8.39c0.355,0.758,0.636,1.548,0.84,2.36h0.08c0.16-0.54,0.45-1.36,0.88-2.44L30.47,26h7   l-8.36,13.88L37.74,54H30.26z"/>
</g>
<g>
	<path style="fill:#E0E9F0;" d="M71,29H56v-7h15V29z M57,28h13v-5H57V28z"/>
</g>
<g>
	<polygon style="fill:#E0E9F0;" points="53,29 46.75,29 46.75,28 52,28 52,23 46.75,23 46.75,22 53,22  "/>
</g>
<g>
	<path style="fill:#E0E9F0;" d="M71,39H56v-7h15V39z M57,38h13v-5H57V38z"/>
</g>
<g>
	<path style="fill:#E0E9F0;" d="M71,49H56v-7h15V49z M57,48h13v-5H57V48z"/>
</g>
<g>
	<polygon style="fill:#E0E9F0;" points="53,39 46.75,39 46.75,38 52,38 52,33 46.75,33 46.75,32 53,32  "/>
</g>
<g>
	<polygon style="fill:#E0E9F0;" points="53,49 46.75,49 46.75,48 52,48 52,43 46.75,43 46.75,42 53,42  "/>
</g>
<g>
	<path style="fill:#E0E9F0;" d="M71,59H56v-7h15V59z M57,58h13v-5H57V58z"/>
</g>
<g>
	<polygon style="fill:#E0E9F0;" points="53,59 46.75,59 46.75,58 52,58 52,53 46.75,53 46.75,52 53,52  "/>
</g>
<g>
	<path style="fill:#5D9874;" d="M37.75,55h-7.48c-0.189,0-0.362-0.106-0.447-0.275l-4.83-9.62c-0.003-0.006-0.006-0.012-0.008-0.018   c-0.062-0.137-0.12-0.274-0.174-0.414c-0.062,0.173-0.128,0.345-0.197,0.515l-4.787,9.537C19.742,54.894,19.569,55,19.38,55h-7.52   c-0.181,0-0.348-0.098-0.436-0.255c-0.088-0.158-0.085-0.352,0.009-0.506l8.697-14.25l-8.016-14.245   c-0.087-0.155-0.086-0.344,0.004-0.498S12.372,25,12.55,25h7.67c0.197,0,0.375,0.115,0.456,0.295l4,8.89   c0.163,0.348,0.311,0.705,0.445,1.068c0.128-0.347,0.273-0.725,0.435-1.128l4.468-8.851C30.109,25.106,30.282,25,30.47,25h7   c0.179,0,0.344,0.096,0.434,0.25c0.089,0.155,0.088,0.346-0.001,0.501l-8.213,14.126l8.491,14.368   c0.091,0.154,0.093,0.346,0.003,0.502C38.095,54.903,37.93,55,37.75,55z M30.579,54h6.295l-8.194-13.866   c-0.092-0.155-0.093-0.349-0.001-0.505L36.601,26h-5.823l-4.312,8.536c-0.483,1.218-0.729,1.958-0.847,2.356   c-0.063,0.212-0.258,0.358-0.479,0.358c-0.229,0-0.509-0.156-0.565-0.378c-0.196-0.779-0.468-1.543-0.808-2.27L19.897,26h-6.492   l7.741,13.755c0.089,0.158,0.085,0.352-0.009,0.506L12.751,54h6.32l4.632-9.225c0.236-0.586,0.443-1.235,0.601-1.892   c0.054-0.226,0.255-0.384,0.486-0.384c0.245,0,0.534,0.178,0.574,0.419c0.099,0.604,0.276,1.19,0.527,1.745L30.579,54z"/>
</g>
<g>
	<path style="fill:#5D9874;" d="M74.5,69h-28v-1h28c0.827,0,1.5-0.673,1.5-1.5v-53c0-0.827-0.673-1.5-1.5-1.5H46v-1h28.5   c1.379,0,2.5,1.122,2.5,2.5v53C77,67.879,75.879,69,74.5,69z"/>
</g>
<g>
	<path style="fill:#5D9874;" d="M47,76.602L3,68.416V11.584l44-8.186V76.602z M4,67.584l42,7.814V4.602L4,12.416V67.584z"/>
</g>
</svg>