<?xml version="1.0" encoding="iso-8859-1"?><!-- Generator: Adobe Illustrator 19.1.1, SVG Export Plug-In . SVG Version: 6.00 Build 0)  --><svg xmlns="http://www.w3.org/2000/svg" xmlns:xlink="http://www.w3.org/1999/xlink" viewBox="0 0 48 48" width="480px" height="480px"><path style="fill:#43A047;" d="M37,45H11c-1.657,0-3-1.343-3-3V6c0-1.657,1.343-3,3-3h19l10,10v29C40,43.657,38.657,45,37,45z"/><polygon style="fill:#C8E6C9;" points="40,13 30,13 30,3 "/><polygon style="fill:#2E7D32;" points="30,13 40,23 40,13 "/><path style="fill:#E8F5E9;" d="M31,23H17h-2v2v2v2v2v2v2v2h18v-2v-2v-2v-2v-2v-2v-2H31z M17,25h4v2h-4V25z M17,29h4v2h-4V29z M17,33h4v2h-4V33z M31,35h-8v-2h8V35z M31,31h-8v-2h8V31z M31,27h-8v-2h8V27z"/></svg>