<?xml version="1.0" encoding="utf-8"?>
<!-- Generator: Adobe Illustrator 19.2.1, SVG Export Plug-In . SVG Version: 6.00 Build 0)  -->
<svg version="1.1" id="Ebene_1" xmlns="http://www.w3.org/2000/svg" xmlns:xlink="http://www.w3.org/1999/xlink" x="0px" y="0px"
	 viewBox="0 0 215.4 96.4" style="enable-background:new 0 0 215.4 96.4;" xml:space="preserve">
<style type="text/css">
	.st0{fill:#00AABE;}
	.st1{fill:#2D2382;}
</style>
<g>
	<path class="st0" d="M109.7,69V58.2c0-0.2,0.1-0.3,0.4-0.3h9.2c0.3,0,0.4-0.1,0.4-0.4v-1c0-0.3-0.1-0.4-0.4-0.4h-9.2
		c-0.3,0-0.4-0.1-0.4-0.3V46c0-0.2,0.1-0.4,0.4-0.4h10.3c0.3,0,0.5-0.1,0.5-0.4v-0.9c0-0.3-0.2-0.4-0.5-0.4h-12.3
		c-0.3,0-0.4,0.2-0.4,0.5V69c0,0.3,0.1,0.5,0.4,0.5h1.2C109.5,69.5,109.7,69.4,109.7,69L109.7,69L109.7,69z M128.5,69v-9.7
		c0-0.2,0.1-0.4,0.4-0.4h6.3l4.7,10.1c0.1,0.3,0.4,0.5,0.7,0.5h1.2c0.3,0,0.4-0.2,0.3-0.5L137.4,59v-0.2c1.3-0.3,2.3-0.9,3.1-1.8
		c0.8-1,1.1-2.2,1.1-3.7v-3.8c0-1.8-0.5-3.1-1.5-4.2c-1-1-2.4-1.5-4.1-1.5h-9.1c-0.3,0-0.4,0.2-0.4,0.5V69c0,0.3,0.1,0.5,0.4,0.5
		h1.2C128.3,69.5,128.5,69.4,128.5,69L128.5,69L128.5,69z M128.5,56.9V46c0-0.2,0.1-0.4,0.4-0.4h6.9c1.2,0,2.2,0.3,2.8,1
		c0.7,0.7,1,1.7,1,2.9v3.8c0,1.3-0.3,2.2-1,2.9c-0.7,0.7-1.6,1-2.8,1h-6.9C128.6,57.2,128.5,57.1,128.5,56.9L128.5,56.9L128.5,56.9z
		 M161.5,69.1v-0.9c0-0.3-0.2-0.4-0.5-0.4h-10.4c-0.3,0-0.4-0.1-0.4-0.4v-9.7c0-0.2,0.1-0.4,0.4-0.4h9.2c0.3,0,0.4-0.1,0.4-0.4V56
		c0-0.3-0.1-0.4-0.4-0.4h-9.2c-0.3,0-0.4-0.1-0.4-0.4V46c0-0.2,0.1-0.4,0.4-0.4H161c0.3,0,0.5-0.1,0.5-0.4v-0.9
		c0-0.3-0.2-0.4-0.5-0.4h-12.4c-0.3,0-0.4,0.2-0.4,0.5V69c0,0.3,0.1,0.5,0.4,0.5H161C161.3,69.5,161.5,69.4,161.5,69.1L161.5,69.1
		L161.5,69.1z M181.2,69.1v-0.9c0-0.3-0.2-0.4-0.5-0.4h-10.4c-0.3,0-0.4-0.1-0.4-0.4v-9.7c0-0.2,0.1-0.4,0.4-0.4h9.2
		c0.3,0,0.4-0.1,0.4-0.4V56c0-0.3-0.1-0.4-0.4-0.4h-9.2c-0.3,0-0.4-0.1-0.4-0.4V46c0-0.2,0.1-0.4,0.4-0.4h10.4
		c0.3,0,0.5-0.1,0.5-0.4v-0.9c0-0.3-0.2-0.4-0.5-0.4h-12.4c-0.3,0-0.4,0.2-0.4,0.5V69c0,0.3,0.1,0.5,0.4,0.5h12.4
		C181,69.5,181.2,69.4,181.2,69.1L181.2,69.1L181.2,69.1z"/>
	<path class="st1" d="M4.3,68c1,1,2.4,1.5,4.1,1.5h4.7c1.7,0,3.1-0.5,4.1-1.5c1-1,1.5-2.4,1.5-4.2v-2c0-1.5-0.5-2.8-1.4-3.7
		c-1-0.9-2.1-1.5-3.5-1.9c-1.4-0.3-2.7-0.7-4.1-0.9c-3.3-0.6-4.9-1.9-4.9-3.7v-2c0-2.7,1.3-4.1,3.8-4.1h4.1c2.6,0,3.9,1.3,3.9,4v1
		c0,0.3,0.1,0.4,0.4,0.4h1.2c0.3,0,0.4-0.1,0.4-0.4v-1.1c0-1.8-0.5-3.1-1.5-4.2c-1-1-2.4-1.5-4.1-1.5H8.5c-1.7,0-3.1,0.5-4.1,1.5
		c-1,1-1.5,2.4-1.5,4.2v2.2c0,1.4,0.5,2.6,1.4,3.4c1,0.9,2.1,1.4,3.5,1.8c1.4,0.3,2.7,0.6,4.1,0.9c1.4,0.3,2.5,0.8,3.5,1.4
		c1,0.7,1.4,1.6,1.4,2.8v1.7c0,2.7-1.3,4-3.9,4H8.7c-2.6,0-3.9-1.3-3.9-4v-1.3c0-0.3-0.1-0.4-0.4-0.4H3.3c-0.3,0-0.4,0.1-0.4,0.4
		v1.4C2.8,65.6,3.3,67,4.3,68L4.3,68z M39.6,68c1-1,1.5-2.4,1.5-4.2v-2c0-0.3-0.1-0.5-0.4-0.5h-1.1c-0.3,0-0.4,0.2-0.4,0.5v1.9
		c0,1.3-0.3,2.3-1,2.9c-0.7,0.7-1.6,1-2.8,1h-4.7c-1.2,0-2.2-0.3-2.8-1c-0.6-0.7-1-1.7-1-2.9V49.6c0-1.3,0.3-2.2,1-2.9
		c0.6-0.7,1.6-1,2.8-1h4.7c1.2,0,2.2,0.3,2.8,1c0.7,0.7,1,1.7,1,2.9v1.9c0,0.3,0.1,0.5,0.4,0.5h1.1c0.3,0,0.4-0.2,0.4-0.5v-2
		c0-1.8-0.5-3.1-1.5-4.2c-1-1-2.4-1.5-4.1-1.5h-5c-1.7,0-3.1,0.5-4.1,1.5c-1,1-1.5,2.4-1.5,4.2v14.4c0,1.8,0.5,3.1,1.5,4.2
		c1,1,2.4,1.5,4.1,1.5h5C37.3,69.5,38.6,69,39.6,68L39.6,68z M47.2,69l2.2-6.4h10.5L62,69c0.1,0.3,0.3,0.5,0.5,0.5h1.3
		c0.3,0,0.4-0.2,0.3-0.5l-8-24.8c-0.1-0.3-0.3-0.5-0.6-0.5h-1.9c-0.3,0-0.5,0.2-0.6,0.5l-8,24.8c-0.1,0.3,0,0.5,0.3,0.5h1.2
		C46.9,69.5,47.1,69.4,47.2,69L47.2,69L47.2,69z M54.7,46l4.6,14.8h-9.4L54.5,46H54.7L54.7,46z M82.8,69.1v-1c0-0.3-0.2-0.4-0.5-0.4
		H71.6c-0.3,0-0.4-0.1-0.4-0.4v-23c0-0.3-0.1-0.5-0.4-0.5h-1.2c-0.3,0-0.4,0.2-0.4,0.5V69c0,0.3,0.1,0.5,0.4,0.5h12.7
		C82.6,69.5,82.8,69.4,82.8,69.1L82.8,69.1L82.8,69.1z M100.7,69.1v-0.9c0-0.3-0.2-0.4-0.5-0.4H89.9c-0.3,0-0.4-0.1-0.4-0.4v-9.7
		c0-0.2,0.1-0.4,0.4-0.4h9.2c0.3,0,0.4-0.1,0.4-0.4V56c0-0.3-0.1-0.4-0.4-0.4h-9.2c-0.3,0-0.4-0.1-0.4-0.4V46c0-0.2,0.1-0.4,0.4-0.4
		h10.4c0.3,0,0.5-0.1,0.5-0.4v-0.9c0-0.3-0.2-0.4-0.5-0.4H87.9c-0.3,0-0.4,0.2-0.4,0.5V69c0,0.3,0.1,0.5,0.4,0.5h12.4
		C100.5,69.5,100.7,69.4,100.7,69.1L100.7,69.1L100.7,69.1z"/>
	<path class="st1" d="M202.9,18.7l-1.2,2l-1.1,1.9c1.2,1.2,1.9,2.8,1.9,4.7s-0.7,3.5-1.9,4.6l1.1,1.9l1.2,2c2.5-2,4.1-5.1,4.1-8.5
		C207,23.7,205.4,20.7,202.9,18.7L202.9,18.7z"/>
	<path class="st1" d="M198.9,35.3l-1.1-1.9c-0.6,0.2-1.1,0.2-1.7,0.2c-3,0-5.6-2.1-6.3-4.9h-2.2h-2.3c0.8,5.2,5.3,9.3,10.8,9.3
		c1.4,0,2.7-0.3,4-0.7L198.9,35.3L198.9,35.3z"/>
	<path class="st1" d="M196.1,16.3c-5.5,0-10,4-10.8,9.3h2.3h2.2c0.7-2.8,3.3-4.9,6.3-4.9c0.6,0,1.2,0.1,1.7,0.2l1.1-1.9l1.2-2
		C198.8,16.5,197.5,16.3,196.1,16.3L196.1,16.3z"/>
	<path class="st0" d="M183,25.5h-6.2c0.2,0.5,0.2,1.1,0.2,1.7c0,0.6-0.1,1.1-0.2,1.7h6.2c-0.1-0.5-0.1-1.1-0.1-1.7
		C182.8,26.6,182.9,26.1,183,25.5L183,25.5z"/>
	<path class="st0" d="M175.1,25.5c-0.6-1.5-2.1-2.5-3.8-2.5c-2.3,0-4.1,1.9-4.1,4.1s1.8,4.1,4.1,4.1c1.7,0,3.1-1,3.8-2.5
		c0.2-0.5,0.3-1.1,0.3-1.7C175.4,26.6,175.3,26,175.1,25.5L175.1,25.5z"/>
	<polygon class="st0" points="207.2,43.1 207.2,43.1 204.1,37.7 204.1,37.7 207.2,43.1 	"/>
	<polygon class="st0" points="201.2,39.4 201.2,39.4 204.3,44.8 204.3,44.8 201.2,39.4 	"/>
	<path class="st0" d="M205.6,43.7c0.5-0.3,1-0.5,1.6-0.6l-3.1-5.4c-0.9,0.7-1.8,1.2-2.9,1.7l3.1,5.4C204.7,44.3,205.1,44,205.6,43.7
		L205.6,43.7z"/>
	<path class="st0" d="M212.1,46.6c-0.7-1.3-2.1-2.1-3.6-2.1c-0.2,0-0.3,0-0.5,0l0,0c-0.6,0.1-1.1,0.2-1.6,0.5
		c-0.5,0.3-0.9,0.7-1.3,1.1l0,0c-0.9,1.3-1.1,3-0.2,4.5c0.7,1.3,2.1,2.1,3.6,2.1c0.7,0,1.4-0.2,2.1-0.6c1-0.6,1.6-1.4,1.9-2.5
		C212.7,48.6,212.6,47.5,212.1,46.6L212.1,46.6z"/>
	<path class="st0" d="M207.2,11.3c-0.5-0.1-1.1-0.3-1.6-0.6c-0.5-0.3-0.9-0.6-1.3-1l-3.1,5.4c1,0.4,2,1,2.9,1.7L207.2,11.3
		L207.2,11.3z"/>
	<path class="st0" d="M210.5,2.2c-0.6-0.4-1.3-0.6-2.1-0.6c-1.5,0-2.8,0.8-3.6,2.1c-0.8,1.5-0.7,3.2,0.2,4.5l0,0
		c0.3,0.4,0.8,0.8,1.3,1.1c0.5,0.3,1,0.5,1.6,0.5c0.2,0,0.3,0,0.5,0c1.5,0,2.8-0.8,3.6-2.1C213.2,5.8,212.5,3.3,210.5,2.2L210.5,2.2
		z"/>
	<path class="st0" d="M199.2,25.1L199.2,25.1c-0.6-0.9-1.7-1.6-2.9-1.7l0,0c-0.1,0-0.2,0-0.2,0c-1.5,0-2.7,0.8-3.3,2.1
		c-0.2,0.5-0.4,1.1-0.4,1.7c0,0.6,0.1,1.2,0.4,1.7c0,0,0,0,0,0c0.6,1.2,1.9,2.1,3.3,2.1c0.1,0,0.2,0,0.2,0l0,0
		c1.2-0.1,2.2-0.7,2.9-1.7c0.4-0.6,0.6-1.3,0.6-2.1C199.8,26.4,199.6,25.7,199.2,25.1L199.2,25.1z"/>
</g>
</svg>
