<?xml version="1.0" encoding="UTF-8"?>
<!-- Generator: Adobe Illustrator 27.1.1, SVG Export Plug-In . SVG Version: 6.00 Build 0)  -->
<svg xmlns="http://www.w3.org/2000/svg" xmlns:xlink="http://www.w3.org/1999/xlink" version="1.1" id="Ebene_1" x="0px" y="0px" viewBox="0 0 300 86" style="enable-background:new 0 0 300 86;" xml:space="preserve">
<style type="text/css">
	.st0{fill:#EB5A50;}
	.st1{fill:#00AABE;}
	.st2{fill:#00A8C0;}
	.st3{fill:#2D2382;}
</style>
<g>
	<path class="st0" d="M287.8315,18.0306l-1.17,2.027l-1.094,1.894c1.221,1.208,1.979,2.882,1.979,4.731   c0,1.848-0.758,3.522-1.979,4.73l1.094,1.894l1.17,2.027c2.533-2.036,4.158-5.156,4.158-8.651   C291.9895,23.1876,290.3645,20.0666,287.8315,18.0306"></path>
	<path class="st0" d="M283.7447,34.9925l-1.093-1.893c-0.561,0.154-1.151,0.238-1.76,0.238c-3.088,0-5.691-2.114-6.439-4.971h-2.185   h-2.347c0.814,5.323,5.424,9.414,10.971,9.414c1.419,0,2.776-0.271,4.025-0.759L283.7447,34.9925z"></path>
	<path class="st0" d="M280.8916,15.5838c-5.547,0-10.156,4.091-10.971,9.414h2.347h2.186c0.747-2.857,3.35-4.971,6.438-4.971   c0.609,0,1.199,0.084,1.76,0.238l1.093-1.893l1.171-2.029C283.6676,15.8548,282.3106,15.5838,280.8916,15.5838"></path>
	<path class="st1" d="M267.5258,24.9976h-6.303c0.163,0.533,0.251,1.099,0.251,1.685c0,0.585-0.088,1.151-0.251,1.684h6.303   c-0.069-0.553-0.109-1.114-0.109-1.684C267.4168,26.1116,267.4568,25.5496,267.5258,24.9976"></path>
	<path class="st1" d="M259.5335,24.9976c-0.65-1.476-2.125-2.511-3.839-2.511c-2.314,0-4.196,1.882-4.196,4.196   c0,2.313,1.882,4.195,4.196,4.195c1.714,0,3.189-1.035,3.839-2.511c0.228-0.516,0.356-1.085,0.356-1.684   C259.8895,26.0826,259.7605,25.5136,259.5335,24.9976"></path>
	<polygon class="st2" points="292.1855,42.8755 292.1855,42.8755 289.0315,37.4115  "></polygon>
	<polygon class="st2" points="286.1174,39.1019 286.1174,39.1019 289.2674,44.5579  "></polygon>
	<path class="st1" d="M290.6003,43.498c0.496-0.287,1.032-0.494,1.585-0.623l-3.154-5.464c-0.892,0.679-1.869,1.25-2.914,1.691   l3.15,5.456C289.6473,44.15,290.0933,43.791,290.6003,43.498"></path>
	<path class="st1" d="M297.1235,46.4063c-0.747-1.294-2.141-2.099-3.638-2.099c-0.153,0-0.305,0.011-0.457,0.028   c-0.573,0.064-1.131,0.244-1.636,0.535c-0.519,0.3-0.947,0.696-1.281,1.151c-0.953,1.301-1.111,3.096-0.254,4.58   c0.747,1.294,2.141,2.099,3.637,2.099c0.732,0,1.455-0.195,2.093-0.563c0.971-0.561,1.665-1.465,1.955-2.548   C297.8325,48.5073,297.6835,47.3763,297.1235,46.4063"></path>
	<path class="st1" d="M292.1857,10.4887c-0.554-0.129-1.089-0.336-1.586-0.623c-0.507-0.293-0.952-0.652-1.333-1.059l-3.15,5.455   c1.046,0.442,2.023,1.013,2.914,1.691L292.1857,10.4887z"></path>
	<path class="st1" d="M295.5879,1.2271c-0.638-0.368-1.362-0.563-2.093-0.563c-1.497,0-2.891,0.804-3.638,2.098   c-0.857,1.485-0.698,3.28,0.255,4.581c0.333,0.455,0.762,0.851,1.281,1.15c0.504,0.292,1.062,0.472,1.635,0.536   c0.152,0.017,0.305,0.027,0.458,0.027c1.496,0.001,2.89-0.804,3.638-2.098C298.2799,4.9551,297.5909,2.3841,295.5879,1.2271"></path>
	<path class="st1" d="M284.0518,24.5772L284.0518,24.5772c-0.64-0.958-1.703-1.605-2.919-1.682c-0.08-0.005-0.16-0.013-0.241-0.013   c-1.49,0-2.778,0.864-3.401,2.115c-0.253,0.509-0.399,1.08-0.399,1.685s0.146,1.176,0.399,1.684c0,0,0,0,0,0.001   c0.623,1.251,1.911,2.114,3.401,2.114c0.081,0,0.161-0.007,0.241-0.012c1.216-0.077,2.279-0.725,2.919-1.682   c0.403-0.603,0.639-1.327,0.639-2.105S284.4548,25.1802,284.0518,24.5772"></path>
	<g>
		<path class="st3" d="M10.5476,65.6264H9.3943c-0.2925,0-0.438-0.1592-0.438-0.4775V42.1938c0-0.2393-0.1328-0.3584-0.3975-0.3584    h-5.769c-0.3179,0-0.4771-0.1455-0.4771-0.4375v-0.915c0-0.291,0.1592-0.4375,0.4771-0.4375h14.3223    c0.3184,0,0.4775,0.1465,0.4775,0.4375v0.915c0,0.292-0.1592,0.4375-0.4775,0.4375h-5.7686c-0.2656,0-0.3979,0.1191-0.3979,0.3584    v22.9551C10.9456,65.4672,10.8128,65.6264,10.5476,65.6264z"></path>
		<path class="st3" d="M35.7312,40.0454h1.1138c0.2915,0,0.4375,0.1465,0.4375,0.4375V59.977c0,1.751-0.4971,3.1299-1.4917,4.1377    c-0.9946,1.0078-2.354,1.5117-4.0776,1.5117h-4.4561c-1.7246,0-3.083-0.5039-4.0776-1.5117    c-0.9946-1.0078-1.4922-2.3867-1.4922-4.1377V40.5229c0-0.3184,0.1323-0.4775,0.3979-0.4775h1.1538    c0.2915,0,0.4375,0.1592,0.4375,0.4775v19.375c0,1.2471,0.3184,2.2148,0.9551,2.9043c0.6362,0.6895,1.5645,1.0342,2.7847,1.0342    h4.0977c1.2197,0,2.1548-0.3389,2.8047-1.0146c0.6499-0.6768,0.9746-1.6514,0.9746-2.9238v-19.375    C35.2932,40.2045,35.4388,40.0454,35.7312,40.0454z"></path>
		<path class="st3" d="M44.7615,65.6264h-1.1538c-0.2651,0-0.3975-0.1592-0.3975-0.4775v-24.626    c0-0.3184,0.1323-0.4775,0.3975-0.4775h9.0708c1.7236,0,3.0894,0.5039,4.0977,1.5117c1.0078,1.0088,1.5122,2.3867,1.5122,4.1377    v3.7793c0,1.4854-0.3784,2.7051-1.1343,3.6602s-1.7837,1.5654-3.083,1.8301v0.1592l4.7344,10.0254    c0.1592,0.3184,0.0659,0.4775-0.2788,0.4775h-1.2329c-0.3452,0-0.584-0.1592-0.7163-0.4775l-4.6943-10.0254H45.597    c-0.2651,0-0.3979,0.1191-0.3979,0.3584v9.667C45.199,65.4672,45.053,65.6264,44.7615,65.6264z M45.597,53.4125h6.8828    c1.2197,0,2.1611-0.3379,2.8247-1.0146c0.6626-0.6758,0.9946-1.6367,0.9946-2.8838v-3.7402c0-1.2461-0.332-2.2139-0.9946-2.9043    c-0.6636-0.6885-1.605-1.0342-2.8247-1.0342H45.597c-0.2651,0-0.3979,0.1191-0.3979,0.3584v10.8613    C45.199,53.2934,45.3318,53.4125,45.597,53.4125z"></path>
		<path class="st3" d="M64.2156,65.1489v-24.626c0-0.3184,0.1323-0.4775,0.3975-0.4775h9.27c1.7236,0,3.0894,0.4912,4.0977,1.4717    c1.0073,0.9814,1.5117,2.335,1.5117,4.0586v2.4268c0,2.4131-1.1406,3.9648-3.4214,4.6543    c0.981,0.0537,1.8433,0.5039,2.5859,1.3525c0.7422,0.8496,1.1138,1.9492,1.1138,3.3027v2.7842    c0,1.7246-0.5039,3.0771-1.5117,4.0586c-1.0083,0.9814-2.374,1.4717-4.0977,1.4717h-9.5483    C64.3479,65.6264,64.2156,65.4672,64.2156,65.1489z M66.6023,51.7817h7.002c1.2466,0,2.208-0.3311,2.8843-0.9951    c0.6763-0.6621,1.0146-1.6035,1.0146-2.8242v-2.3477c0-2.5459-1.2598-3.8184-3.7793-3.8184h-7.1216    c-0.2651,0-0.3979,0.1191-0.3979,0.3574v9.2695C66.2044,51.6625,66.3372,51.7817,66.6023,51.7817z M66.6023,63.8754h7.3999    c2.5195,0,3.7793-1.2725,3.7793-3.8184V57.312c0-2.5195-1.3794-3.7803-4.1372-3.7803h-7.042    c-0.2651,0-0.3979,0.1064-0.3979,0.3184v9.668C66.2044,63.7563,66.3372,63.8754,66.6023,63.8754z"></path>
		<path class="st3" d="M95.6839,65.6264h-4.8931c-1.7246,0-3.0835-0.5039-4.0781-1.5117c-0.9946-1.0078-1.4917-2.3867-1.4917-4.1377    V45.6948c0-1.751,0.4971-3.1289,1.4917-4.1377c0.9946-1.0078,2.3535-1.5117,4.0781-1.5117h4.8931    c1.7241,0,3.0835,0.5039,4.0781,1.5117c0.9946,1.0088,1.4917,2.3867,1.4917,4.1377V59.977c0,1.751-0.4971,3.1299-1.4917,4.1377    C98.7674,65.1225,97.408,65.6264,95.6839,65.6264z M90.95,63.8364h4.5352c1.2197,0,2.1543-0.3389,2.8047-1.0146    c0.6499-0.6768,0.9746-1.6514,0.9746-2.9238v-14.124c0-1.2725-0.3247-2.2471-0.9746-2.9238    c-0.6504-0.6758-1.585-1.0146-2.8047-1.0146H90.95c-1.2207,0-2.1484,0.3457-2.7852,1.0342    c-0.6367,0.6904-0.9546,1.6582-0.9546,2.9043v14.124c0,1.2471,0.3179,2.2148,0.9546,2.9043S89.7293,63.8364,90.95,63.8364z"></path>
	</g>
	<g>
		<path class="st1" d="M115.0598,65.6264h-1.8301c-0.2651,0-0.4375-0.1592-0.5171-0.4775l-7.3999-24.626    c-0.106-0.3184,0.0132-0.4775,0.3584-0.4775h1.2329c0.2651,0,0.438,0.1592,0.5176,0.4775l6.6436,22.6367h0.1592l6.644-22.6367    c0.0796-0.3184,0.252-0.4775,0.5171-0.4775h1.2334c0.3184,0,0.4375,0.1592,0.3579,0.4775l-7.3994,24.626    C115.4978,65.4672,115.325,65.6264,115.0598,65.6264z"></path>
		<path class="st1" d="M125.0457,65.6264h-1.2329c-0.2925,0-0.3848-0.1592-0.2788-0.4775l7.9165-24.626    c0.0801-0.3184,0.2656-0.4775,0.5586-0.4775h1.8691c0.2637,0,0.4512,0.1592,0.5566,0.4775l7.918,24.626    c0.0781,0.3184-0.0137,0.4775-0.2793,0.4775h-1.2734c-0.2656,0-0.4375-0.1592-0.5176-0.4775l-2.1484-6.3652h-10.4229    l-2.1479,6.3652C125.4568,65.4672,125.2845,65.6264,125.0457,65.6264z M132.843,42.2338l-4.5742,14.7598h9.3496l-4.6152-14.7598    H132.843z"></path>
		<path class="st1" d="M160.8108,40.0454h1.1143c0.291,0,0.4375,0.1465,0.4375,0.4375V59.977c0,1.751-0.498,3.1299-1.4922,4.1377    c-0.9941,1.0078-2.3545,1.5117-4.0781,1.5117h-4.4551c-1.7246,0-3.084-0.5039-4.0781-1.5117    c-0.9951-1.0078-1.4922-2.3867-1.4922-4.1377V40.5229c0-0.3184,0.1328-0.4775,0.3975-0.4775h1.1543    c0.291,0,0.4375,0.1592,0.4375,0.4775v19.375c0,1.2471,0.3184,2.2148,0.9551,2.9043s1.5645,1.0342,2.7842,1.0342h4.0986    c1.2188,0,2.1543-0.3389,2.8047-1.0146c0.6494-0.6768,0.9746-1.6514,0.9746-2.9238v-19.375    C160.3733,40.2045,160.5188,40.0454,160.8108,40.0454z"></path>
		<path class="st1" d="M181.8167,65.6264h-12.6514c-0.2656,0-0.3975-0.1592-0.3975-0.4775v-24.626    c0-0.3184,0.1318-0.4775,0.3975-0.4775h1.1543c0.291,0,0.4375,0.1592,0.4375,0.4775v22.876c0,0.2383,0.1318,0.3574,0.3975,0.3574    h10.6621c0.3184,0,0.4775,0.1465,0.4775,0.4375v0.9951C182.2942,65.4809,182.135,65.6264,181.8167,65.6264z"></path>
		<path class="st1" d="M190.7669,65.6264h-1.1533c-0.292,0-0.4375-0.1592-0.4375-0.4775V42.1938    c0-0.2393-0.1338-0.3584-0.3984-0.3584h-5.7686c-0.3184,0-0.4775-0.1455-0.4775-0.4375v-0.915    c0-0.291,0.1592-0.4375,0.4775-0.4375h14.3223c0.3184,0,0.4775,0.1465,0.4775,0.4375v0.915c0,0.292-0.1592,0.4375-0.4775,0.4375    h-5.7686c-0.2656,0-0.3975,0.1191-0.3975,0.3584v22.9551C191.1653,65.4672,191.0315,65.6264,190.7669,65.6264z"></path>
	</g>
	<g>
		<path class="st0" d="M212.1321,65.6264h-1.0742c-0.292,0-0.4375-0.1592-0.4375-0.4775v-4.7344h-11.5371    c-0.3975,0-0.5967-0.1846-0.5967-0.5566V59.142c0-0.2393,0.0928-0.5439,0.2783-0.915l10.4238-17.585    c0.2383-0.3975,0.5566-0.5967,0.9541-0.5967h1.8701c0.3711,0,0.5566,0.1992,0.5566,0.5967v17.9824h2.9844    c0.291,0,0.4375,0.1328,0.4375,0.3975v0.9551c0,0.292-0.1465,0.4375-0.4375,0.4375h-2.9844v4.7344    C212.5696,65.4672,212.4241,65.6264,212.1321,65.6264z M210.6204,58.6245V41.6372L200.595,58.6245H210.6204z"></path>
	</g>
	<g>
		<path class="st0" d="M229.1595,65.6264h-2.665c-1.6973,0-3.0371-0.5039-4.0186-1.5117c-0.9814-1.0078-1.4717-2.3867-1.4717-4.1377    v-8.9912c0-1.75,0.4902-3.1289,1.4717-4.1377c0.9814-1.0078,2.3213-1.5117,4.0186-1.5117h2.665    c2.042,0,3.4346,0.6904,4.1777,2.0693h0.1592v-9.2695c0-0.3184,0.1328-0.4775,0.3975-0.4775h1.1543    c0.291,0,0.4375,0.1592,0.4375,0.4775v27.0127c0,0.3184-0.1465,0.4775-0.4375,0.4775h-1.1543    c-0.2646,0-0.3975-0.1592-0.3975-0.4775v-1.5908h-0.1592C232.594,64.937,231.2014,65.6264,229.1595,65.6264z M233.4964,59.937    v-8.9111c0-1.2461-0.3652-2.208-1.0938-2.8848c-0.7305-0.6758-1.7305-1.0146-3.0039-1.0146h-2.666    c-1.2197,0-2.1475,0.3457-2.7842,1.0352s-0.9551,1.6572-0.9551,2.9043v8.832c0,1.2471,0.3184,2.2148,0.9551,2.9043    s1.5645,1.0342,2.7842,1.0342h2.666c1.2734,0,2.2734-0.3389,3.0039-1.0146C233.1311,62.145,233.4964,61.184,233.4964,59.937z"></path>
		<path class="st0" d="M241.2932,65.1489V38.1362c0-0.3184,0.1328-0.4775,0.3984-0.4775h1.1533c0.292,0,0.4375,0.1592,0.4375,0.4775    v8.9512h0.1592c0.7422-1.3789,2.1221-2.0693,4.1377-2.0693h2.626c1.7236,0,3.083,0.5049,4.0781,1.5117    c0.9941,1.0088,1.4912,2.374,1.4912,4.0986v9.3486c0,1.751-0.4971,3.1299-1.4912,4.1377    c-0.9951,1.0078-2.3545,1.5117-4.0781,1.5117h-8.5137C241.4261,65.6264,241.2932,65.4672,241.2932,65.1489z M243.6809,63.8364    h6.3252c1.2197,0,2.1543-0.3389,2.8047-1.0146c0.6494-0.6768,0.9746-1.6514,0.9746-2.9238v-9.1904    c0-1.2461-0.3252-2.208-0.9746-2.8848c-0.6504-0.6758-1.585-1.0137-2.8047-1.0137h-2.626c-1.2725,0-2.2744,0.3379-3.0029,1.0137    c-0.7305,0.6768-1.0947,1.6387-1.0947,2.8848V63.478C243.2825,63.7172,243.4153,63.8364,243.6809,63.8364z"></path>
		<path class="st0" d="M261.8225,47.1264h-2.4268c-0.293,0-0.4385-0.1318-0.4385-0.3975v-0.9551    c0-0.291,0.1455-0.4375,0.4385-0.4375h2.4268c0.2383,0,0.3574-0.1191,0.3574-0.3574v-3.2227c0-0.3184,0.1455-0.4775,0.4375-0.4775    h1.1543c0.291,0,0.4375,0.1592,0.4375,0.4775v3.2227c0,0.2383,0.1191,0.3574,0.3584,0.3574h4.7344    c0.291,0,0.4375,0.1465,0.4375,0.4375v0.9551c0,0.2656-0.1465,0.3975-0.4375,0.3975h-4.7344    c-0.2393,0-0.3584,0.1201-0.3584,0.3584V60.017c0,1.2197,0.3447,2.1621,1.0342,2.8242c0.6895,0.6631,1.6572,0.9951,2.9043,0.9951    h1.5518c0.291,0,0.4375,0.1455,0.4375,0.4375v0.915c0,0.292-0.1465,0.4375-0.4375,0.4375h-1.7109    c-1.75,0-3.1562-0.4902-4.2168-1.4717c-1.0615-0.9814-1.5918-2.334-1.5918-4.0586V47.4848    C262.18,47.2465,262.0608,47.1264,261.8225,47.1264z"></path>
	</g>
	<path class="st3" d="M6.8577,85.5219H6.4226c-0.1001,0-0.1499-0.0596-0.1499-0.1797v-9.2852c0-0.1201,0.0498-0.1797,0.1499-0.1797   h3.4502c0.6499,0,1.165,0.1895,1.5449,0.5693s0.5703,0.9004,0.5703,1.5605v1.7549c0,0.6602-0.1904,1.1797-0.5703,1.5596   s-0.895,0.5703-1.5449,0.5703H7.1726c-0.1001,0-0.1499,0.04-0.1499,0.1201v3.3301C7.0227,85.4624,6.9676,85.5219,6.8577,85.5219z    M7.1726,81.2016h2.6401c0.46,0,0.8101-0.127,1.0503-0.3818c0.2397-0.2549,0.3599-0.6182,0.3599-1.0879v-1.6953   c0-0.4795-0.1201-0.8467-0.3599-1.1025c-0.2402-0.2549-0.5903-0.3818-1.0503-0.3818H7.1726c-0.1001,0-0.1499,0.0449-0.1499,0.1348   v4.3945C7.0227,81.1626,7.0725,81.2016,7.1726,81.2016z"></path>
	<path class="st3" d="M18.0325,85.5219h-1.8447c-0.6504,0-1.1626-0.1895-1.5376-0.5703c-0.375-0.3799-0.5625-0.8994-0.5625-1.5596   v-5.3848c0-0.6602,0.1875-1.1807,0.5625-1.5605s0.8872-0.5693,1.5376-0.5693h1.8447c0.6499,0,1.1626,0.1895,1.5376,0.5693   s0.5625,0.9004,0.5625,1.5605v5.3848c0,0.6602-0.1875,1.1797-0.5625,1.5596C19.1951,85.3325,18.6824,85.5219,18.0325,85.5219z    M16.2478,84.8471h1.71c0.46,0,0.812-0.1279,1.0576-0.3828c0.2446-0.2549,0.3672-0.6221,0.3672-1.1025v-5.3252   c0-0.4795-0.1226-0.8467-0.3672-1.1025c-0.2456-0.2549-0.5977-0.3818-1.0576-0.3818h-1.71c-0.4604,0-0.8101,0.1299-1.0503,0.3896   c-0.2397,0.2598-0.3599,0.625-0.3599,1.0947v5.3252c0,0.4707,0.1201,0.835,0.3599,1.0947   C15.4378,84.7172,15.7874,84.8471,16.2478,84.8471z"></path>
	<path class="st3" d="M24.9178,85.5219h-0.75c-0.1104,0-0.1802-0.0596-0.21-0.1797l-2.0552-9.2852   c-0.0298-0.1201,0.02-0.1797,0.1499-0.1797h0.4951c0.1099,0,0.1748,0.0596,0.1948,0.1797l1.7852,8.6094h0.0752l2.2798-8.625   c0.02-0.1094,0.085-0.1641,0.1948-0.1641h0.5703c0.1201,0,0.1899,0.0547,0.21,0.1641l2.2949,8.625h0.0752l1.77-8.6094   c0.0195-0.1201,0.0898-0.1797,0.21-0.1797h0.5098c0.1201,0,0.165,0.0596,0.1353,0.1797l-2.0552,9.2852   c-0.02,0.1201-0.085,0.1797-0.1948,0.1797h-0.7651c-0.1104,0-0.1802-0.0596-0.21-0.1797l-2.2202-8.46h-0.0601l-2.2349,8.46   C25.0828,85.4624,25.0174,85.5219,24.9178,85.5219z"></path>
	<path class="st3" d="M39.6175,85.5219h-4.6353c-0.1001,0-0.1499-0.0596-0.1499-0.1797v-9.2852   c0-0.1201,0.0498-0.1797,0.1499-0.1797h4.6353c0.1201,0,0.1802,0.0547,0.1802,0.1641v0.3457c0,0.1104-0.0601,0.165-0.1802,0.165   h-3.8853c-0.1001,0-0.1499,0.0449-0.1499,0.1348v3.4502c0,0.0898,0.0498,0.1348,0.1499,0.1348h3.4653   c0.1099,0,0.165,0.0547,0.165,0.165v0.3447c0,0.1104-0.0552,0.165-0.165,0.165h-3.4653c-0.1001,0-0.1499,0.0449-0.1499,0.1348   v3.6309c0,0.0898,0.0498,0.1348,0.1499,0.1348h3.8853c0.1201,0,0.1802,0.0547,0.1802,0.165v0.3447   C39.7976,85.4672,39.7376,85.5219,39.6175,85.5219z"></path>
	<path class="st3" d="M42.6321,85.5219h-0.4351c-0.1001,0-0.1499-0.0596-0.1499-0.1797v-9.2852   c0-0.1201,0.0498-0.1797,0.1499-0.1797h3.4204c0.6499,0,1.1646,0.1895,1.5449,0.5693c0.3799,0.3799,0.5698,0.9004,0.5698,1.5605   v1.4248c0,0.5596-0.1426,1.0195-0.4272,1.3799c-0.2852,0.3604-0.6729,0.5898-1.1626,0.6904v0.0596l1.7847,3.7803   c0.0601,0.1201,0.0249,0.1797-0.105,0.1797h-0.4648c-0.1299,0-0.2202-0.0596-0.27-0.1797l-1.77-3.7803h-2.3701   c-0.1001,0-0.1499,0.0449-0.1499,0.1348v3.6455C42.7972,85.4624,42.742,85.5219,42.6321,85.5219z M42.9471,80.9165h2.5952   c0.46,0,0.8149-0.127,1.0649-0.3818s0.375-0.6172,0.375-1.0879v-1.4102c0-0.4697-0.125-0.835-0.375-1.0947   s-0.605-0.3896-1.0649-0.3896h-2.5952c-0.1001,0-0.1499,0.0449-0.1499,0.1348v4.0947   C42.7972,80.8715,42.847,80.9165,42.9471,80.9165z"></path>
	<path class="st3" d="M54.887,85.5219h-4.6353c-0.1001,0-0.1499-0.0596-0.1499-0.1797v-9.2852c0-0.1201,0.0498-0.1797,0.1499-0.1797   h4.6353c0.1201,0,0.1802,0.0547,0.1802,0.1641v0.3457c0,0.1104-0.0601,0.165-0.1802,0.165h-3.8853   c-0.1001,0-0.1499,0.0449-0.1499,0.1348v3.4502c0,0.0898,0.0498,0.1348,0.1499,0.1348h3.4653c0.1099,0,0.165,0.0547,0.165,0.165   v0.3447c0,0.1104-0.0552,0.165-0.165,0.165h-3.4653c-0.1001,0-0.1499,0.0449-0.1499,0.1348v3.6309   c0,0.0898,0.0498,0.1348,0.1499,0.1348h3.8853c0.1201,0,0.1802,0.0547,0.1802,0.165v0.3447   C55.0672,85.4672,55.0071,85.5219,54.887,85.5219z"></path>
	<path class="st3" d="M57.3167,85.3422v-9.2852c0-0.1201,0.0498-0.1797,0.1499-0.1797h3.7051c0.6499,0,1.1626,0.1895,1.5376,0.5693   s0.5625,0.9004,0.5625,1.5605v5.3848c0,0.6602-0.1875,1.1797-0.5625,1.5596c-0.375,0.3809-0.8877,0.5703-1.5376,0.5703h-3.7051   C57.3665,85.5219,57.3167,85.4624,57.3167,85.3422z M58.2166,84.8471h2.8804c0.4595,0,0.812-0.1279,1.0571-0.3828   s0.3677-0.6221,0.3677-1.1025v-5.3252c0-0.4795-0.1226-0.8467-0.3677-1.1025c-0.2451-0.2549-0.5977-0.3818-1.0571-0.3818h-2.8804   c-0.1001,0-0.1499,0.0449-0.1499,0.1348v8.0254C58.0667,84.8022,58.1165,84.8471,58.2166,84.8471z"></path>
	<path class="st3" d="M69.6765,85.3422v-9.2852c0-0.1201,0.0498-0.1797,0.1499-0.1797h3.4951c0.6499,0,1.165,0.1846,1.5449,0.5547   s0.5703,0.8799,0.5703,1.5303v0.915c0,0.9092-0.4302,1.4941-1.29,1.7549c0.3696,0.0195,0.6948,0.1895,0.9751,0.5098   c0.2798,0.3203,0.4199,0.7354,0.4199,1.2451v1.0498c0,0.6504-0.1904,1.1602-0.5703,1.5303s-0.895,0.5547-1.5449,0.5547h-3.6001   C69.7263,85.5219,69.6765,85.4624,69.6765,85.3422z M70.5764,80.3022h2.6401c0.4702,0,0.8325-0.125,1.0874-0.375   c0.2554-0.25,0.3828-0.6055,0.3828-1.0654V77.977c0-0.96-0.4751-1.4404-1.4253-1.4404h-2.6851   c-0.1001,0-0.1499,0.0449-0.1499,0.1357v3.4941C70.4265,80.2573,70.4763,80.3022,70.5764,80.3022z M70.5764,84.8618h2.79   c0.9502,0,1.4253-0.4795,1.4253-1.4395v-1.0352c0-0.9502-0.52-1.4248-1.5601-1.4248h-2.6553c-0.1001,0-0.1499,0.04-0.1499,0.1191   v3.6455C70.4265,84.8168,70.4763,84.8618,70.5764,84.8618z"></path>
	<path class="st3" d="M80.5818,85.5219h-0.4351c-0.1104,0-0.165-0.0596-0.165-0.1797v-3.4648l-2.9102-5.8203   c-0.0596-0.1201-0.0249-0.1797,0.105-0.1797h0.54c0.0903,0,0.1602,0.0596,0.21,0.1797l2.4004,4.9053h0.0747l2.3853-4.9053   c0.0498-0.1201,0.1201-0.1797,0.21-0.1797h0.5547c0.1104,0,0.145,0.0596,0.1055,0.1797l-2.9253,5.8203v3.4648   C80.7317,85.4624,80.6814,85.5219,80.5818,85.5219z"></path>
	<path class="st3" d="M89.2815,83.392v-0.54c0-0.1104,0.0552-0.165,0.165-0.165h0.4351c0.1099,0,0.165,0.0547,0.165,0.165v0.4951   c0,1,0.4849,1.5,1.4551,1.5h1.5601c0.9697,0,1.4551-0.5049,1.4551-1.5156v-0.6299c0-0.4395-0.1802-0.7842-0.54-1.0352   c-0.3604-0.249-0.7949-0.4297-1.3052-0.5391c-0.5098-0.1104-1.0225-0.2256-1.5376-0.3457s-0.9521-0.3398-1.3125-0.6602   c-0.3599-0.3193-0.54-0.75-0.54-1.29v-0.8242c0-0.6602,0.1899-1.1807,0.5703-1.5605c0.3799-0.3799,0.8945-0.5693,1.5449-0.5693   h1.7397c0.6499,0,1.165,0.1895,1.5454,0.5693c0.3799,0.3799,0.5698,0.9004,0.5698,1.5605v0.4199c0,0.1104-0.0552,0.165-0.165,0.165   h-0.4351c-0.1104,0-0.165-0.0547-0.165-0.165v-0.375c0-1-0.4849-1.5-1.4551-1.5h-1.5449c-0.96,0-1.4399,0.5098-1.4399,1.5293v0.75   c0,0.6904,0.6152,1.1553,1.8452,1.3955c0.5098,0.0996,1.022,0.2148,1.5371,0.3447s0.9526,0.3652,1.3125,0.7051   c0.3604,0.3398,0.54,0.7998,0.54,1.3799v0.7354c0,0.6602-0.1899,1.1797-0.5698,1.5596c-0.3804,0.3809-0.895,0.5703-1.5449,0.5703   h-1.77c-0.6504,0-1.165-0.1895-1.5449-0.5703C89.4715,84.5717,89.2815,84.0522,89.2815,83.392z"></path>
	<path class="st3" d="M101.5667,85.5219h-1.8901c-0.6504,0-1.1626-0.1895-1.5376-0.5703c-0.375-0.3799-0.5625-0.8994-0.5625-1.5596   v-5.3848c0-0.6602,0.1875-1.1807,0.5625-1.5605s0.8872-0.5693,1.5376-0.5693h1.8901c0.6499,0,1.1621,0.1895,1.5371,0.5693   s0.5625,0.9004,0.5625,1.5605v0.7344c0,0.1201-0.0547,0.1807-0.165,0.1807h-0.4199c-0.1099,0-0.165-0.0605-0.165-0.1807v-0.7051   c0-0.4795-0.1226-0.8467-0.3672-1.1025c-0.2451-0.2549-0.5977-0.3818-1.0576-0.3818h-1.7549c-0.4604,0-0.8101,0.1299-1.0503,0.3896   c-0.2397,0.2598-0.3599,0.625-0.3599,1.0947v5.3252c0,0.4707,0.1201,0.835,0.3599,1.0947   c0.2402,0.2607,0.5898,0.3906,1.0503,0.3906h1.7549c0.46,0,0.8125-0.1279,1.0576-0.3828c0.2446-0.2549,0.3672-0.6221,0.3672-1.1025   v-0.7051c0-0.1201,0.0552-0.1797,0.165-0.1797h0.4199c0.1104,0,0.165,0.0596,0.165,0.1797v0.7354   c0,0.6602-0.1875,1.1797-0.5625,1.5596C102.7288,85.3325,102.2166,85.5219,101.5667,85.5219z"></path>
	<path class="st3" d="M105.8264,85.5219h-0.4648c-0.1104,0-0.145-0.0596-0.105-0.1797l2.9849-9.2852   c0.0298-0.1201,0.0996-0.1797,0.21-0.1797h0.7051c0.0996,0,0.1699,0.0596,0.21,0.1797l2.9849,9.2852   c0.0303,0.1201-0.0049,0.1797-0.105,0.1797h-0.48c-0.1001,0-0.165-0.0596-0.1948-0.1797l-0.8101-2.4004h-3.9302l-0.8101,2.4004   C105.9812,85.4624,105.9163,85.5219,105.8264,85.5219z M108.7664,76.7016l-1.7251,5.5654h3.5249l-1.7397-5.5654H108.7664z"></path>
	<path class="st3" d="M119.2361,85.5219h-4.77c-0.1001,0-0.1499-0.0596-0.1499-0.1797v-9.2852c0-0.1201,0.0498-0.1797,0.1499-0.1797   h0.4351c0.1099,0,0.165,0.0596,0.165,0.1797v8.625c0,0.0898,0.0498,0.1348,0.1499,0.1348h4.02c0.1201,0,0.1802,0.0547,0.1802,0.165   v0.375C119.4163,85.4672,119.3562,85.5219,119.2361,85.5219z"></path>
	<path class="st3" d="M126.136,85.5219h-4.6353c-0.1001,0-0.1499-0.0596-0.1499-0.1797v-9.2852   c0-0.1201,0.0498-0.1797,0.1499-0.1797h4.6353c0.1201,0,0.1802,0.0547,0.1802,0.1641v0.3457c0,0.1104-0.0601,0.165-0.1802,0.165   h-3.8853c-0.1001,0-0.1499,0.0449-0.1499,0.1348v3.4502c0,0.0898,0.0498,0.1348,0.1499,0.1348h3.4653   c0.1099,0,0.165,0.0547,0.165,0.165v0.3447c0,0.1104-0.0552,0.165-0.165,0.165h-3.4653c-0.1001,0-0.1499,0.0449-0.1499,0.1348   v3.6309c0,0.0898,0.0498,0.1348,0.1499,0.1348h3.8853c0.1201,0,0.1802,0.0547,0.1802,0.165v0.3447   C126.3162,85.4672,126.2561,85.5219,126.136,85.5219z"></path>
	<path class="st3" d="M129.1516,85.5219h-0.4355c-0.0996,0-0.1504-0.0596-0.1504-0.1797v-9.2852   c0-0.1201,0.0508-0.1797,0.1504-0.1797h4.6191c0.1211,0,0.1797,0.0547,0.1797,0.1641v0.3457c0,0.1104-0.0586,0.165-0.1797,0.165   h-3.8691c-0.0996,0-0.1504,0.0449-0.1504,0.1348v3.6445c0,0.0811,0.0508,0.1201,0.1504,0.1201h3.4648   c0.1094,0,0.1641,0.0557,0.1641,0.165v0.3604c0,0.1104-0.0547,0.165-0.1641,0.165h-3.4648c-0.0996,0-0.1504,0.04-0.1504,0.1201   v4.0801C129.3157,85.4624,129.261,85.5219,129.1516,85.5219z"></path>
	<path class="st3" d="M136.1712,85.5219h-0.4355c-0.0996,0-0.1494-0.0596-0.1494-0.1797v-9.2852   c0-0.1201,0.0498-0.1797,0.1494-0.1797h3.4199c0.6504,0,1.165,0.1895,1.5449,0.5693s0.5703,0.9004,0.5703,1.5605v1.4248   c0,0.5596-0.1426,1.0195-0.4277,1.3799s-0.6729,0.5898-1.1621,0.6904v0.0596l1.7852,3.7803   c0.0596,0.1201,0.0244,0.1797-0.1055,0.1797h-0.4648c-0.1299,0-0.2197-0.0596-0.2695-0.1797l-1.7705-3.7803h-2.3701   c-0.0996,0-0.1494,0.0449-0.1494,0.1348v3.6455C136.3362,85.4624,136.2805,85.5219,136.1712,85.5219z M136.4856,80.9165h2.5947   c0.46,0,0.8154-0.127,1.0654-0.3818s0.375-0.6172,0.375-1.0879v-1.4102c0-0.4697-0.125-0.835-0.375-1.0947   s-0.6055-0.3896-1.0654-0.3896h-2.5947c-0.0996,0-0.1494,0.0449-0.1494,0.1348v4.0947   C136.3362,80.8715,136.386,80.9165,136.4856,80.9165z"></path>
	<path class="st3" d="M148.4251,85.5219h-4.6348c-0.0996,0-0.1494-0.0596-0.1494-0.1797v-9.2852   c0-0.1201,0.0498-0.1797,0.1494-0.1797h4.6348c0.1201,0,0.1807,0.0547,0.1807,0.1641v0.3457c0,0.1104-0.0605,0.165-0.1807,0.165   h-3.8848c-0.0996,0-0.1494,0.0449-0.1494,0.1348v3.4502c0,0.0898,0.0498,0.1348,0.1494,0.1348h3.4648   c0.1104,0,0.165,0.0547,0.165,0.165v0.3447c0,0.1104-0.0547,0.165-0.165,0.165h-3.4648c-0.0996,0-0.1494,0.0449-0.1494,0.1348   v3.6309c0,0.0898,0.0498,0.1348,0.1494,0.1348h3.8848c0.1201,0,0.1807,0.0547,0.1807,0.165v0.3447   C148.6057,85.4672,148.5452,85.5219,148.4251,85.5219z"></path>
	<path class="st3" d="M155.6399,85.5219h-4.6348c-0.0996,0-0.1494-0.0596-0.1494-0.1797v-9.2852   c0-0.1201,0.0498-0.1797,0.1494-0.1797h4.6348c0.1201,0,0.1807,0.0547,0.1807,0.1641v0.3457c0,0.1104-0.0605,0.165-0.1807,0.165   h-3.8848c-0.0996,0-0.1494,0.0449-0.1494,0.1348v3.4502c0,0.0898,0.0498,0.1348,0.1494,0.1348h3.4648   c0.1104,0,0.165,0.0547,0.165,0.165v0.3447c0,0.1104-0.0547,0.165-0.165,0.165h-3.4648c-0.0996,0-0.1494,0.0449-0.1494,0.1348   v3.6309c0,0.0898,0.0498,0.1348,0.1494,0.1348h3.8848c0.1201,0,0.1807,0.0547,0.1807,0.165v0.3447   C155.8206,85.4672,155.76,85.5219,155.6399,85.5219z"></path>
</g>
</svg>
